<svg xmlns="http://www.w3.org/2000/svg" width="330" height="64" fill="none"><g fill="#fff" clip-path="url(#a)"><path d="m265.541 18.933.036-.013-1.522 10.742h6.168c2.938 0 5.654-2.38 6.063-5.314l.727-5.113c2.201 5.149 5.374 9.083 5.374 9.083 4.003-1.59 7.514-2.791 7.514-2.791-2.658-2.296-7.492-7.61-11.507-13.475h8.92c1.032 0 1.86-.731 2.014-1.732l.492-3.498h-11.05l.457-3.238h-9.728c-1.03 0-1.86.732-2.012 1.732l-.222 1.509h-10.124a2.015 2.015 0 0 0-2.014 1.732l-.492 3.498h8.498c-1.941 3.462-7.302 11.943-10.709 16.726 0 0 7.63-3.31 13.122-9.848zM283.555 33.88l-.025.023h.013zM318.2 12.067l-.012-.012h8.791c1.03 0 1.86-.732 2.014-1.732l.492-3.498h-10.909l.457-3.239h-9.728c-1.017 0-1.86.732-2.014 1.733l-.212 1.508h-10.252a2.02 2.02 0 0 0-2.015 1.733l-.492 3.497h8.65c-1.943 3.462-7.304 11.943-10.709 16.726 0 0 7.63-3.31 13.12-9.847l-1.522 10.741h6.168c2.938 0 5.654-2.38 6.063-5.314l.727-5.113c2.201 5.15 5.374 9.084 5.374 9.084 4.003-1.59 7.514-2.792 7.514-2.792-2.658-2.296-7.504-7.61-11.505-13.475M283.235 33.904h-13.637l-12.982 14.112c7.971 0 15.521-3.074 21.084-8.588l.386-.389h30.245c-1.592 3.18-6.156 7.48-13.016 11.45-9.352-7.622-17.966-4.853-17.966-4.853s3.897 3.675 8.498 9.4c-8.907 3.559-19.993 6.137-32.527 6.137l-.341 1.023s55.262 6.963 68.465-23.182l.386-2.779h-40.945l2.352-2.331zM27.79 39.654h11.938l4.66-32.888.048-.342V6.33c0-.991-.773-1.791-1.732-1.85l.013-.012H9.867c-.889 0-1.697.706-1.815 1.59L.55 59.006 0 62.87l24.17-4.7-.48 3.404h11.94l2.117-14.948h-6.626c-2.938 0-5.653 2.38-6.062 5.314l-.457 3.18-11.775 1.473 2.4-16.939H27.79M19.829 7.24h12.56L30.48 20.678H17.92zm-2.294 16.197h12.56l-1.91 13.44H15.627zM82.607 6.66c.022-.107.045-.211.045-.33a1.86 1.86 0 0 0-1.812-1.862v.012H53.436c-.888 0-1.696.707-1.814 1.59l-8.055 56.812h11.94L63.383 7.25h7.198L63.9 54.424h6.625c2.938 0 5.654-2.38 6.063-5.313l6.017-42.395v-.059zM245.086 26.794l.215-1.188h-20.074l1.709-11.646h14.294c.961 0 1.883-.785 2.059-1.753l.215-1.189h-16.136l1.219-8.315h-10.202l-1.22 8.316h-6.191c.671-1.395 1.335-2.947 2.032-4.694l-10.374-1.613s-2.822 7.505-7.395 18.521c7.35-1.826 11.07-4.158 14.162-9.27h7.337l-1.708 11.645h-18.037c-.962 0-1.883.785-2.06 1.753l-.214 1.188h48.312c.962 0 1.883-.784 2.06-1.752zM207.955 32.964h-9.735l-2.721 18.613h39.506c1.23 0 2.275-.907 2.454-2.134l2.408-16.48zm-2.289 15.669 1.86-12.725h22.176l-1.86 12.725zM194.399 12.743c-7.368-5.357-16.283-6.312-16.283-6.312l-.328.203c3.814 5.306 7.686 12.423 7.686 12.423l8.925-6.311z"/><path d="m188.72 50.409 3.859-27.153h-18.807c-.961 0-1.883.785-2.059 1.753l-.215 1.188h9.014l-3.262 22.95-11.095 5.458 8.602 7.965s6.736-4.493 10.434-11.722c8.549 16.2 57.657 12.868 57.657 12.868l3.841-10.028s-9.783 1.81-32.964 1.81c-13.571 0-21.239-2.956-25.008-5.092zM163.293 3.183h-9.266l-8.731 59.908h11.649l8.384-57.533c.182-1.253-.782-2.375-2.036-2.375M145.498 9.761h-8.829l-6.643 46.205h10.654l6.587-44.137a1.797 1.797 0 0 0-1.769-2.068M87.226 48.43v.427c11.704-3.67 24.98-9.777 40.581-26.525l-9.816-3.546c-2.196 2.705-4.215 5.108-6.3 7.424H98.659c8.353-3.533 12.53-6.921 17.959-13.269h14.051c.962 0 1.883-.785 2.06-1.752l.215-1.19h-19.506l5.903-4.175C112.988.772 104.323 0 104.323 0l-.302.188c2.627 3.421 4.997 7.561 6.219 9.81H93.882c-.962 0-1.883.784-2.06 1.752l-.215 1.189h13.835c-1.414 1.945-6.05 8.298-9.968 13.269h-4.886l1.638 7.53 16.55-4.399c-5.177 5.383-11.315 10.813-21.553 19.088zM128.953 38.097l-10.344-4.01c-10.515 10.243-17.968 17.19-36.906 29.344l.02.526c7.69-1.64 18.779-4.016 31.944-12.997l7.759 11.437 8.302-5.407c-3.387-3.384-7.078-6.465-12.873-8.309 3.88-2.898 7.921-6.377 12.095-10.584z"/></g><defs><clipPath id="a"><path fill="#fff" d="M0 0h330v64H0z"/></clipPath></defs></svg>