<svg width="27" height="18" viewBox="0 0 27 18" fill="none" xmlns="http://www.w3.org/2000/svg">
<path d="M21.6908 5.5278L18.6507 3.78574C18.5842 3.74773 18.5012 3.79587 18.5012 3.87252V8.20171C18.5012 8.27899 18.5424 8.35057 18.6095 8.38922L21.6496 10.1313C21.7161 10.1693 21.7991 10.1211 21.7991 10.0445V5.71531C21.7991 5.63802 21.7579 5.56644 21.6908 5.5278Z" fill="#FF0017"/>
<path d="M17.5408 3.14963L14.5008 1.40756C14.4342 1.36955 14.3513 1.4177 14.3513 1.49435V8.22631C14.3513 8.28143 14.3956 8.32577 14.4507 8.32577H17.5491C17.6042 8.32577 17.6485 8.28143 17.6485 8.22631V3.33713C17.6491 3.25985 17.608 3.18827 17.5408 3.14963Z" fill="#FF0017"/>
<path d="M10.3507 10.1308L13.3908 8.38871C13.4579 8.35007 13.4991 8.27848 13.4991 8.2012V1.0068C13.4991 0.93015 13.4161 0.882006 13.3496 0.920014L10.3096 2.66208C10.2424 2.70072 10.2012 2.7723 10.2012 2.84959V10.044C10.2019 10.1206 10.2842 10.1688 10.3507 10.1308Z" fill="#FF0017"/>
<path d="M22.6512 6.24946V8.22591C22.6512 8.28102 22.6956 8.32536 22.7507 8.32536H26.2C26.302 8.32536 26.3381 8.1898 26.2494 8.13912L22.8001 6.16267C22.7336 6.1253 22.6512 6.17281 22.6512 6.24946Z" fill="#FF0017"/>
<path d="M9.20098 3.29828L0.750388 8.14058C0.661701 8.19126 0.69781 8.32682 0.799799 8.32682H9.25039C9.3055 8.32682 9.34984 8.28248 9.34984 8.22737V3.38443C9.35048 3.30778 9.26749 3.26027 9.20098 3.29828Z" fill="#FF0017"/>
<path d="M22.347 13.9785L17.283 13.1543V14.8387L22.347 14.0146C22.3679 14.0114 22.3679 13.9816 22.347 13.9785Z" fill="#FF0017"/>
<path d="M22.3383 11.8481H17.3072C17.2939 11.8481 17.2825 11.8589 17.2825 11.8729V13.0049L17.3059 13.0087L18.004 13.1221V12.5152H19.4616V13.359L20.1832 13.4762V12.5146H21.6408V13.7131L22.3623 13.8303V11.8716C22.363 11.8589 22.3516 11.8481 22.3383 11.8481Z" fill="#2D2F33"/>
<path d="M21.6407 15.476H20.1831V14.5144L19.4616 14.6316V15.4754H18.0039V14.8685L17.3058 14.9819L17.2824 14.9857V16.1177C17.2824 16.131 17.2932 16.1425 17.3071 16.1425H19.4616V17.3391C19.4616 17.3524 19.4685 17.3644 19.4799 17.3714L20.1464 17.7534C20.1628 17.7629 20.1831 17.7509 20.1831 17.7318V16.1431H22.3376C22.3509 16.1431 22.3623 16.1323 22.3623 16.1184V14.1597L21.6407 14.2769V15.476Z" fill="#2D2F33"/>
<path d="M10.0884 15.4457H9.2788V14.5753H9.89073C9.90404 14.5753 9.91544 14.5645 9.91544 14.5506V13.9114C9.91544 13.8981 9.90467 13.8867 9.89073 13.8867H4.85839C4.84509 13.8867 4.83369 13.8975 4.83369 13.9114V14.5506C4.83369 14.5639 4.84446 14.5753 4.85839 14.5753H8.59084V15.4457H5.96254L6.25331 14.9212C6.26218 14.9047 6.25078 14.8844 6.23177 14.8844H5.4716C5.4583 14.8844 5.44626 14.8914 5.43929 14.9034L4.76907 16.0976C4.75957 16.114 4.77161 16.1343 4.79061 16.1343H5.09468H5.57866L4.76844 17.597C4.75957 17.6135 4.77097 17.6337 4.78998 17.6337H5.55902C5.57232 17.6337 5.58499 17.6268 5.59133 17.6147L6.41105 16.1349H8.59021V16.9458H7.39547C7.38217 16.9458 7.37013 16.9527 7.36316 16.9648L7.00715 17.5976C6.99764 17.6141 7.00968 17.6344 7.02869 17.6344H9.25346C9.26676 17.6344 9.27816 17.6236 9.27816 17.6097V16.1356H10.0877C10.101 16.1356 10.1125 16.1248 10.1125 16.1109V15.4717C10.1131 15.4571 10.1017 15.4457 10.0884 15.4457Z" fill="#2D2F33"/>
<path d="M5.34742 13.4402V12.8239H6.00624L5.60018 13.5479C5.59067 13.5644 5.60271 13.5847 5.62172 13.5847H6.38569C6.39899 13.5847 6.41103 13.5777 6.418 13.5657L6.83419 12.8239H7.9168L8.333 13.5657C8.33933 13.5771 8.352 13.5847 8.3653 13.5847H9.12928C9.14828 13.5847 9.15969 13.5644 9.15082 13.5479L8.74476 12.8239H9.42638V13.4402C9.42638 13.4535 9.43715 13.465 9.45109 13.465H10.0903C10.1036 13.465 10.115 13.4542 10.115 13.4402V12.16C10.115 12.1467 10.1042 12.1353 10.0903 12.1353H7.73183V11.5975C7.73183 11.5842 7.72106 11.5728 7.70712 11.5728H7.04577C7.03247 11.5728 7.02107 11.5835 7.02107 11.5975V12.1353H4.66136C4.64806 12.1353 4.63666 12.1461 4.63666 12.16V13.4402C4.63666 13.4535 4.64743 13.465 4.66136 13.465H5.32271C5.33602 13.465 5.34742 13.4542 5.34742 13.4402Z" fill="#2D2F33"/>
<path d="M16.1208 12.8595L15.4544 12.4775C15.438 12.468 15.4177 12.48 15.4177 12.499V16.7934H13.9601V12.1386C13.9601 12.1253 13.9531 12.1132 13.9417 12.1063L13.2753 11.7243C13.2588 11.7148 13.2385 11.7268 13.2385 11.7458V16.7927H11.7809V12.8892C11.7809 12.8759 11.7739 12.8639 11.7625 12.8569L11.0967 12.4768C11.0803 12.4673 11.06 12.4794 11.06 12.4984V17.4237C11.06 17.4439 11.0765 17.4604 11.0967 17.4604H16.1031C16.1234 17.4604 16.1399 17.4439 16.1399 17.4237V12.8911C16.1392 12.8785 16.1322 12.8658 16.1208 12.8595Z" fill="#2D2F33"/>
</svg>
