<svg xmlns="http://www.w3.org/2000/svg" width="150" height="37" viewBox="0 0 150 37" fill="none">
    <g clip-path="url(#clip0_2610_1881)">
      <path d="M86.7123 12.1875H84.1675C84.0135 12.1875 83.8887 12.3123 83.8887 12.4663V35.6913C83.8887 35.8453 84.0135 35.9701 84.1675 35.9701H86.7123C86.8662 35.9701 86.9911 35.8453 86.9911 35.6913V12.4663C86.9911 12.3123 86.8662 12.1875 86.7123 12.1875Z" fill="#4B4B4B"/>
      <path d="M120.65 12.2842H117.977C117.821 12.2842 117.694 12.4106 117.694 12.5665V36.5672C117.694 36.7231 117.821 36.8495 117.977 36.8495H120.65C120.806 36.8495 120.933 36.7231 120.933 36.5672V12.5665C120.933 12.4106 120.806 12.2842 120.65 12.2842Z" fill="#4B4B4B"/>
      <path d="M77.697 15.0938H75.1593C75.0034 15.0938 74.877 15.2202 74.877 15.3761V36.3959C74.877 36.5518 75.0034 36.6782 75.1593 36.6782H77.697C77.8529 36.6782 77.9793 36.5518 77.9793 36.3959V15.3761C77.9793 15.2202 77.8529 15.0938 77.697 15.0938Z" fill="#4B4B4B"/>
      <path d="M95.7351 15.0938H93.1974C93.0415 15.0938 92.915 15.2202 92.915 15.3761V36.3959C92.915 36.5518 93.0415 36.6782 93.1974 36.6782H95.7351C95.891 36.6782 96.0174 36.5518 96.0174 36.3959V15.3761C96.0174 15.2202 95.891 15.0938 95.7351 15.0938Z" fill="#4B4B4B"/>
      <path d="M95.8711 33.5786V36.1592C95.8711 36.2976 95.8161 36.4303 95.7183 36.5282C95.6204 36.626 95.4877 36.681 95.3493 36.681H75.5376C75.3992 36.681 75.2665 36.626 75.1686 36.5282C75.0707 36.4303 75.0158 36.2976 75.0158 36.1592V33.5786H95.8711Z" fill="#4B4B4B"/>
      <path d="M138.463 14.9756V12.9597C138.463 12.8827 138.4 12.8203 138.323 12.8203H126.211C126.134 12.8203 126.071 12.8827 126.071 12.9597V14.9756C126.071 15.0525 126.134 15.1149 126.211 15.1149H138.323C138.4 15.1149 138.463 15.0525 138.463 14.9756Z" fill="#4B4B4B"/>
      <path d="M149.449 13.5492V15.7366C149.449 15.7736 149.435 15.809 149.408 15.8352C149.382 15.8613 149.347 15.876 149.31 15.876H141.575C141.499 15.876 141.427 15.8459 141.373 15.7923C141.319 15.7386 141.289 15.6659 141.289 15.5901V13.6922C141.289 13.6163 141.319 13.5436 141.373 13.49C141.427 13.4364 141.499 13.4062 141.575 13.4062H149.31C149.347 13.4062 149.382 13.4209 149.408 13.4471C149.435 13.4732 149.449 13.5087 149.449 13.5456V13.5492Z" fill="#4B4B4B"/>
      <path d="M65.4093 15.6555C65.3628 16.8742 65.1949 19.6693 64.6194 24.0691C64.6144 24.1094 64.6179 24.1503 64.6297 24.1892C64.6416 24.228 64.6614 24.264 64.6881 24.2946C64.7147 24.3253 64.7475 24.3501 64.7843 24.3672C64.8211 24.3844 64.8612 24.3936 64.9018 24.3943H67.8326C67.9023 24.3931 67.9693 24.3668 68.0212 24.3202C68.0731 24.2736 68.1064 24.2098 68.115 24.1406C68.6833 19.7086 68.8298 16.91 68.887 15.6769C68.8884 15.6386 68.8821 15.6005 68.8683 15.5647C68.8546 15.529 68.8337 15.4964 68.8069 15.469C68.7802 15.4416 68.7481 15.4199 68.7127 15.4052C68.6773 15.3906 68.6393 15.3833 68.601 15.3838H65.6952C65.6216 15.3828 65.5504 15.4107 65.497 15.4614C65.4436 15.5122 65.4121 15.5818 65.4093 15.6555Z" fill="#4B4B4B"/>
      <path d="M51.3541 15.659C51.4042 16.885 51.5686 19.7014 52.1476 24.1334C52.1538 24.1741 52.1511 24.2156 52.1397 24.2552C52.1284 24.2947 52.1086 24.3314 52.0818 24.3626C52.055 24.3938 52.0218 24.4189 51.9844 24.4361C51.947 24.4533 51.9064 24.4622 51.8652 24.4622H48.913C48.8428 24.4612 48.7754 24.435 48.7229 24.3884C48.6705 24.3418 48.6364 24.278 48.627 24.2085C48.0552 19.7407 47.8943 16.9207 47.8479 15.6805C47.8464 15.6417 47.8528 15.6031 47.8668 15.5669C47.8807 15.5307 47.9019 15.4978 47.929 15.47C47.956 15.4423 47.9885 15.4203 48.0243 15.4055C48.0601 15.3907 48.0986 15.3833 48.1374 15.3838H51.0682C51.1422 15.3838 51.2134 15.4124 51.2667 15.4637C51.32 15.5151 51.3514 15.5851 51.3541 15.659Z" fill="#4B4B4B"/>
      <path d="M125.81 17.1742C125.774 17.1777 125.741 17.1941 125.717 17.2205C125.692 17.2469 125.679 17.2812 125.678 17.3171V19.6582C125.677 19.6781 125.681 19.6979 125.688 19.7162C125.696 19.7346 125.708 19.7511 125.722 19.7646C125.737 19.7781 125.754 19.7884 125.773 19.7947C125.792 19.801 125.812 19.8032 125.831 19.8012C127.93 19.6046 129.477 18.0999 129.684 15.8231C129.686 15.8035 129.683 15.7837 129.677 15.7651C129.67 15.7465 129.66 15.7295 129.647 15.715C129.633 15.7006 129.617 15.6891 129.599 15.6812C129.581 15.6734 129.561 15.6694 129.541 15.6694H127.19C127.155 15.6693 127.122 15.682 127.096 15.7051C127.07 15.7282 127.054 15.7601 127.05 15.7945C126.882 17.0026 126.207 17.1563 125.81 17.1742Z" fill="#4B4B4B"/>
      <path d="M142.481 17.3669H140.061C140.04 17.3671 140.019 17.372 140 17.3811C139.981 17.3902 139.964 17.4033 139.95 17.4197C139.936 17.436 139.926 17.4551 139.921 17.4756C139.916 17.4961 139.915 17.5176 139.918 17.5385C140.704 21.9669 144.518 24.7583 149.765 24.7476C149.804 24.7467 149.84 24.731 149.868 24.7037C149.895 24.6764 149.911 24.6397 149.912 24.6011V22.2314C149.912 22.1935 149.897 22.1571 149.87 22.1303C149.843 22.1035 149.807 22.0884 149.769 22.0884C146.745 22.0884 143.446 20.8732 142.62 17.4777C142.612 17.4465 142.595 17.4188 142.569 17.3987C142.544 17.3787 142.513 17.3675 142.481 17.3669Z" fill="#4B4B4B"/>
      <path d="M130.711 12.2842H128.009C127.932 12.2842 127.869 12.3466 127.869 12.4236V15.2436C127.869 15.3206 127.932 15.383 128.009 15.383H130.711C130.788 15.383 130.85 15.3206 130.85 15.2436V12.4236C130.85 12.3466 130.788 12.2842 130.711 12.2842Z" fill="#4B4B4B"/>
      <path d="M136.526 12.2842H133.824C133.747 12.2842 133.685 12.3466 133.685 12.4236V15.2436C133.685 15.3206 133.747 15.383 133.824 15.383H136.526C136.603 15.383 136.665 15.3206 136.665 15.2436V12.4236C136.665 12.3466 136.603 12.2842 136.526 12.2842Z" fill="#4B4B4B"/>
      <path d="M148.389 15.4549C148.389 15.3727 148.389 15.3012 148.389 15.2476H145.665C145.665 15.3226 145.665 15.4155 145.665 15.5299C145.69 16.4485 145.748 18.5966 144.286 20.1156C143.174 21.2701 141.351 21.8812 138.864 21.9349C138.845 21.9348 138.826 21.9387 138.808 21.9461C138.791 21.9535 138.775 21.9643 138.761 21.978C138.748 21.9916 138.738 22.0078 138.731 22.0256C138.724 22.0433 138.72 22.0623 138.721 22.0814L138.749 24.5083C138.749 24.528 138.753 24.5475 138.761 24.5657C138.768 24.5839 138.779 24.6005 138.793 24.6144C138.807 24.6283 138.824 24.6394 138.842 24.6469C138.86 24.6545 138.88 24.6584 138.899 24.6584C142.145 24.594 144.618 23.7005 146.248 22.0063C148.5 19.6581 148.418 16.6057 148.389 15.4549Z" fill="#4B4B4B"/>
      <path d="M143.417 12.2522H140.99C140.954 12.2531 140.92 12.2675 140.894 12.2927C140.868 12.3179 140.853 12.352 140.851 12.388C140.835 12.9397 140.624 13.4681 140.257 13.8799C139.889 14.2918 139.389 14.5609 138.842 14.6397C138.809 14.6448 138.778 14.6616 138.756 14.6872C138.734 14.7127 138.721 14.7453 138.721 14.7791V17.2096C138.721 17.229 138.725 17.2482 138.732 17.266C138.74 17.2838 138.751 17.2999 138.765 17.3133C138.779 17.3267 138.796 17.337 138.814 17.3438C138.832 17.3505 138.851 17.3535 138.871 17.3526C140.134 17.2721 141.32 16.7159 142.189 15.796C143.059 14.8761 143.547 13.6609 143.557 12.3952C143.557 12.3766 143.554 12.358 143.547 12.3407C143.54 12.3234 143.53 12.3076 143.517 12.2943C143.504 12.281 143.489 12.2704 143.471 12.2631C143.454 12.2559 143.436 12.2522 143.417 12.2522Z" fill="#4B4B4B"/>
      <path d="M100.904 13.1246V15.6659C100.904 15.7408 100.934 15.8126 100.987 15.8655C101.04 15.9185 101.112 15.9482 101.187 15.9482H109.922C109.958 15.9482 109.993 15.9626 110.018 15.988C110.043 16.0135 110.058 16.048 110.058 16.0841V18.9434C110.058 18.9615 110.055 18.9796 110.048 18.9965C110.042 19.0134 110.032 19.0288 110.019 19.0418C110.007 19.0548 109.991 19.0651 109.975 19.0721C109.958 19.0792 109.94 19.0828 109.922 19.0828H101.187C101.112 19.0828 101.04 19.1126 100.987 19.1655C100.934 19.2185 100.904 19.2903 100.904 19.3652V27.8789C100.904 27.9159 100.912 27.9527 100.926 27.9869C100.94 28.0212 100.961 28.0523 100.987 28.0785C101.013 28.1047 101.044 28.1255 101.079 28.1397C101.113 28.1539 101.15 28.1612 101.187 28.1612H109.922C109.958 28.1622 109.993 28.1773 110.018 28.2033C110.044 28.2293 110.058 28.2643 110.058 28.3006V33.0471C110.058 33.084 110.051 33.1207 110.038 33.1549C110.024 33.1891 110.003 33.2203 109.977 33.2466C109.951 33.2728 109.921 33.2937 109.887 33.3079C109.852 33.3222 109.816 33.3295 109.779 33.3295H103.345C103.282 33.3292 103.221 33.3502 103.171 33.3891C103.121 33.428 103.085 33.4825 103.07 33.5439L102.445 36.2603C102.44 36.2808 102.44 36.3021 102.444 36.3227C102.449 36.3432 102.458 36.3625 102.471 36.379C102.484 36.3955 102.501 36.4088 102.52 36.418C102.539 36.4272 102.56 36.4319 102.581 36.4319H112.313C112.537 36.4319 112.751 36.343 112.91 36.1848C113.068 36.0266 113.157 35.8121 113.157 35.5884V25.3305C113.157 25.2556 113.127 25.1838 113.074 25.1308C113.021 25.0779 112.949 25.0481 112.874 25.0481H104.146C104.128 25.0486 104.109 25.0453 104.092 25.0385C104.075 25.0317 104.059 25.0214 104.046 25.0084C104.033 24.9953 104.023 24.9798 104.016 24.9626C104.009 24.9455 104.006 24.9272 104.007 24.9087V22.3139C104.007 22.2769 104.021 22.2414 104.048 22.2153C104.074 22.1892 104.109 22.1745 104.146 22.1745H112.881C112.956 22.1745 113.028 22.1447 113.081 22.0918C113.134 22.0388 113.164 21.967 113.164 21.8921V13.1246C113.163 13.05 113.133 12.9788 113.08 12.926C113.027 12.8733 112.956 12.8432 112.881 12.8423H101.187C101.112 12.8423 101.04 12.872 100.987 12.925C100.934 12.9779 100.904 13.0498 100.904 13.1246Z" fill="#4B4B4B"/>
      <path d="M137.714 16.3552H128.035C127.998 16.3552 127.963 16.3699 127.936 16.3961C127.91 16.4222 127.896 16.4576 127.896 16.4946V18.1995C127.895 18.2179 127.898 18.2363 127.905 18.2534C127.912 18.2706 127.922 18.2861 127.935 18.2992C127.948 18.3122 127.964 18.3225 127.981 18.3293C127.998 18.3361 128.017 18.3394 128.035 18.3389H135.223C135.241 18.3384 135.259 18.3417 135.277 18.3485C135.294 18.3553 135.309 18.3656 135.322 18.3786C135.335 18.3917 135.346 18.4072 135.352 18.4244C135.359 18.4415 135.363 18.4598 135.362 18.4783V22.3062C135.362 22.3432 135.347 22.3787 135.321 22.4048C135.295 22.4309 135.26 22.4456 135.223 22.4456H134.39C134.358 22.4456 134.328 22.4562 134.303 22.4756C134.279 22.4951 134.261 22.5223 134.254 22.5529L133.786 24.5758C133.781 24.5963 133.781 24.6177 133.785 24.6382C133.79 24.6588 133.799 24.678 133.812 24.6945C133.825 24.711 133.842 24.7244 133.861 24.7335C133.88 24.7427 133.901 24.7474 133.922 24.7474H136.849C137.152 24.7474 137.443 24.6269 137.658 24.4124C137.872 24.1979 137.993 23.907 137.993 23.6037V16.6376C137.993 16.6007 137.986 16.564 137.972 16.5298C137.959 16.4956 137.938 16.4644 137.912 16.4381C137.886 16.4119 137.855 16.391 137.821 16.3768C137.787 16.3626 137.751 16.3552 137.714 16.3552Z" fill="#4B4B4B"/>
      <path d="M136.192 26.3599V34.3982C136.192 34.4351 136.185 34.4717 136.171 34.5057C136.157 34.5398 136.136 34.5707 136.11 34.5966C136.083 34.6225 136.052 34.643 136.018 34.6568C135.984 34.6706 135.947 34.6775 135.91 34.677H133.962C133.899 34.6765 133.838 34.697 133.788 34.7352C133.739 34.7734 133.703 34.8271 133.687 34.8879L133.201 36.6749C133.195 36.6964 133.194 36.719 133.198 36.7409C133.202 36.7628 133.211 36.7834 133.225 36.8011C133.238 36.8188 133.256 36.8331 133.276 36.8429C133.296 36.8526 133.318 36.8575 133.34 36.8572H138.387C138.684 36.8563 138.969 36.7376 139.178 36.5273C139.388 36.3169 139.506 36.032 139.506 35.7349V26.3599H136.192Z" fill="#4B4B4B"/>
      <path d="M126.738 19.3004V23.2535C126.738 23.2904 126.746 23.3269 126.76 23.361C126.774 23.3951 126.795 23.4259 126.821 23.4519C126.847 23.4778 126.879 23.4983 126.913 23.5121C126.947 23.5259 126.984 23.5327 127.021 23.5323H133.315C133.389 23.5323 133.46 23.5029 133.512 23.4506C133.564 23.3983 133.594 23.3274 133.594 23.2535V19.3004C133.594 19.2635 133.587 19.2269 133.573 19.1926C133.56 19.1584 133.539 19.1272 133.513 19.101C133.487 19.0747 133.456 19.0539 133.422 19.0396C133.388 19.0254 133.352 19.0181 133.315 19.0181H127.021C126.946 19.0181 126.874 19.0478 126.821 19.1008C126.768 19.1537 126.738 19.2255 126.738 19.3004ZM131.231 21.9453H129.087C129.05 21.9444 129.015 21.9294 128.989 21.9035C128.963 21.8775 128.948 21.8426 128.947 21.8059V20.7301C128.948 20.6934 128.963 20.6585 128.989 20.6325C129.015 20.6066 129.05 20.5916 129.087 20.5907H131.231C131.268 20.5907 131.303 20.6054 131.33 20.6315C131.356 20.6577 131.37 20.6931 131.37 20.7301V21.8024C131.371 21.821 131.368 21.8395 131.361 21.8568C131.354 21.8741 131.344 21.8899 131.331 21.9032C131.318 21.9166 131.302 21.9272 131.285 21.9344C131.268 21.9416 131.25 21.9453 131.231 21.9453Z" fill="#4B4B4B"/>
      <path d="M148.978 27.2382V25.4797C148.978 25.4027 148.915 25.3403 148.838 25.3403H126.861C126.784 25.3403 126.721 25.4027 126.721 25.4797V27.2382C126.721 27.3152 126.784 27.3776 126.861 27.3776H148.838C148.915 27.3776 148.978 27.3152 148.978 27.2382Z" fill="#4B4B4B"/>
      <path d="M148.635 30.2734V28.5149C148.635 28.4379 148.572 28.3755 148.495 28.3755H127.208C127.131 28.3755 127.068 28.4379 127.068 28.5149V30.2734C127.068 30.3504 127.131 30.4128 127.208 30.4128H148.495C148.572 30.4128 148.635 30.3504 148.635 30.2734Z" fill="#4B4B4B"/>
      <path d="M149.789 33.2866V31.5281C149.789 31.4511 149.727 31.3887 149.65 31.3887H126.053C125.976 31.3887 125.914 31.4511 125.914 31.5281V33.2866C125.914 33.3635 125.976 33.426 126.053 33.426H149.65C149.727 33.426 149.789 33.3635 149.789 33.2866Z" fill="#4B4B4B"/>
      <path d="M56.7932 21.4807C56.9183 28.5933 50.7529 33.3506 47.0786 33.5972C47.0065 33.6 46.9384 33.6306 46.8884 33.6825C46.8384 33.7345 46.8105 33.8039 46.8105 33.876V36.4565C46.8105 36.4941 46.8181 36.5312 46.8327 36.5658C46.8474 36.6003 46.8689 36.6315 46.896 36.6576C46.923 36.6836 46.955 36.7039 46.9901 36.7173C47.0251 36.7306 47.0626 36.7368 47.1001 36.7353C49.8415 36.5709 52.951 35.0912 55.3028 32.8037C57.4187 30.7557 59.9492 27.1279 59.9492 21.4772V12.0842C59.9492 12.0103 59.9199 11.9394 59.8676 11.8871C59.8153 11.8348 59.7444 11.8054 59.6704 11.8054H57.0827C57.0088 11.8054 56.9379 11.8348 56.8856 11.8871C56.8333 11.9394 56.804 12.0103 56.804 12.0842L56.7932 21.4807Z" fill="#4B4B4B"/>
      <path d="M59.9304 21.4805C59.8017 28.5931 65.9815 33.3504 69.6415 33.597C69.7139 33.5997 69.7824 33.6302 69.833 33.6821C69.8836 33.734 69.9122 33.8033 69.9131 33.8758V36.4563C69.9132 36.4942 69.9055 36.5316 69.8906 36.5664C69.8757 36.6012 69.8539 36.6326 69.8265 36.6587C69.799 36.6848 69.7666 36.705 69.7311 36.7181C69.6956 36.7313 69.6578 36.737 69.62 36.7351C66.8822 36.5707 63.7691 35.091 61.4208 32.8035C59.3049 30.7555 56.7744 27.1277 56.7744 21.4769V12.084C56.7744 12.01 56.8038 11.9391 56.8561 11.8869C56.9084 11.8346 56.9793 11.8052 57.0532 11.8052H59.6409C59.6778 11.8047 59.7145 11.8116 59.7487 11.8254C59.7829 11.8392 59.8141 11.8596 59.8404 11.8856C59.8666 11.9115 59.8875 11.9424 59.9017 11.9765C59.9159 12.0105 59.9233 12.0471 59.9233 12.084L59.9304 21.4805Z" fill="#4B4B4B"/>
      <path d="M30.7664 16.9536L25.8662 36.2899C25.8542 36.343 25.8545 36.398 25.867 36.451C25.8795 36.5039 25.9039 36.5532 25.9384 36.5953C25.9729 36.6373 26.0165 36.6709 26.0659 36.6936C26.1153 36.7163 26.1693 36.7273 26.2236 36.726H36.0204C36.0748 36.7273 36.1287 36.7163 36.1782 36.6936C36.2276 36.6709 36.2712 36.6373 36.3057 36.5953C36.3401 36.5532 36.3645 36.5039 36.3771 36.451C36.3896 36.398 36.3898 36.343 36.3779 36.2899L31.4526 16.9536C31.431 16.8794 31.3858 16.8142 31.324 16.7678C31.2621 16.7214 31.1869 16.6963 31.1095 16.6963C31.0322 16.6963 30.9569 16.7214 30.8951 16.7678C30.8332 16.8142 30.7881 16.8794 30.7664 16.9536Z" fill="#00E5E5"/>
      <path d="M3.79577 21.3349L-7.92462e-06 36.2893C-0.0119852 36.3423 -0.0117065 36.3974 0.000807166 36.4503C0.0133208 36.5032 0.0377395 36.5525 0.0722047 36.5946C0.10667 36.6366 0.150273 36.6703 0.199696 36.6929C0.249119 36.7156 0.303059 36.7267 0.35741 36.7253H7.92038C7.97473 36.7267 8.02867 36.7156 8.07809 36.6929C8.12751 36.6703 8.17112 36.6366 8.20558 36.5946C8.24005 36.5525 8.26447 36.5032 8.27698 36.4503C8.28949 36.3974 8.28977 36.3423 8.27779 36.2893L4.47844 21.3349C4.45582 21.2621 4.41048 21.1984 4.34907 21.1531C4.28766 21.1079 4.21338 21.0835 4.13711 21.0835C4.06083 21.0835 3.98656 21.1079 3.92514 21.1531C3.86373 21.1984 3.8184 21.2621 3.79577 21.3349Z" fill="#00E5E5"/>
      <path d="M10.4903 8.95282L3.57421 36.2882C3.56257 36.3397 3.5625 36.3932 3.57402 36.4448C3.58555 36.4964 3.60837 36.5448 3.64084 36.5865C3.67332 36.6282 3.71464 36.6622 3.76184 36.686C3.80903 36.7098 3.86092 36.7229 3.91376 36.7242H17.7494C17.8038 36.7255 17.8577 36.7145 17.9071 36.6918C17.9565 36.6692 18.0002 36.6355 18.0346 36.5935C18.0691 36.5514 18.0935 36.5021 18.106 36.4492C18.1185 36.3963 18.1188 36.3412 18.1068 36.2882L11.1729 8.95282C11.1503 8.87998 11.105 8.81629 11.0435 8.77105C10.9821 8.72582 10.9079 8.70142 10.8316 8.70142C10.7553 8.70142 10.681 8.72582 10.6196 8.77105C10.5582 8.81629 10.5129 8.87998 10.4903 8.95282Z" fill="#006EFF"/>
      <path d="M22.4205 0.260195C22.3979 0.187353 22.3526 0.123658 22.2912 0.0784239C22.2298 0.0331899 22.1555 0.00878906 22.0792 0.00878906C22.0029 0.00878906 21.9287 0.0331899 21.8673 0.0784239C21.8058 0.123658 21.7605 0.187353 21.7379 0.260195L12.2842 36.2879C12.2722 36.341 12.2725 36.396 12.285 36.4489C12.2975 36.5019 12.3219 36.5512 12.3564 36.5933C12.3909 36.6353 12.4345 36.6689 12.4839 36.6916C12.5333 36.7142 12.5872 36.7253 12.6416 36.724H31.5347C31.5891 36.7253 31.643 36.7142 31.6924 36.6916C31.7418 36.6689 31.7854 36.6353 31.8199 36.5933C31.8544 36.5512 31.8788 36.5019 31.8913 36.4489C31.9038 36.396 31.9041 36.341 31.8921 36.2879L22.4205 0.260195Z" fill="#006EFF"/>
      <path d="M15.4758 12.9284L9.47836 36.2857C9.46575 36.339 9.46555 36.3944 9.47777 36.4478C9.48999 36.5012 9.5143 36.551 9.54884 36.5935C9.58338 36.636 9.62721 36.6699 9.67696 36.6928C9.72671 36.7157 9.78105 36.7268 9.83578 36.7253H21.8021C21.8569 36.7268 21.9112 36.7157 21.961 36.6928C22.0107 36.6699 22.0545 36.636 22.0891 36.5935C22.1236 36.551 22.1479 36.5012 22.1602 36.4478C22.1724 36.3944 22.1722 36.339 22.1596 36.2857L16.1585 12.9284C16.1359 12.8556 16.0905 12.7919 16.0291 12.7466C15.9677 12.7014 15.8934 12.677 15.8172 12.677C15.7409 12.677 15.6666 12.7014 15.6052 12.7466C15.5438 12.7919 15.4985 12.8556 15.4758 12.9284Z" fill="#00E5E5"/>
    </g>
    <defs>
      <clipPath id="clip0_2610_1881">
        <rect width="149.912" height="36.8498" fill="white"/>
      </clipPath>
    </defs>
  </svg>