<svg width="33" height="32" viewBox="0 0 33 32" fill="none" xmlns="http://www.w3.org/2000/svg">
<g clip-path="url(#clip0_664_18054)">
<path d="M18.1307 16.1228L18.1785 16.075C18.2095 16.0439 18.243 16.0104 18.277 15.9788L18.3441 15.9143L18.5432 15.7176L18.8167 15.4515L19.0494 15.2213L19.2677 15.0054L19.4954 14.7802L19.7039 14.5742L19.9967 14.2863C20.0519 14.2311 20.1095 14.1784 20.1667 14.1257C20.2722 14.0296 20.3826 13.9364 20.493 13.8452C20.596 13.7639 20.7015 13.6845 20.8094 13.6077C20.9607 13.4997 21.1165 13.4016 21.2747 13.3055C21.4304 13.2144 21.5911 13.1281 21.7542 13.0463C21.9075 12.9719 22.0662 12.9024 22.2269 12.8403C22.3156 12.8043 22.4068 12.7732 22.498 12.7417C22.5433 12.7274 22.5891 12.7106 22.6369 12.6963C22.2318 11.1014 21.4905 9.61445 20.4614 8.33152C20.2623 8.08459 19.9602 7.94067 19.6438 7.94067H11.2379C11.1517 7.94067 11.0797 8.01017 11.0797 8.09888C11.0797 8.14916 11.1039 8.19499 11.1443 8.22604C14.0128 10.3296 16.3918 13.0325 18.1114 16.1454L18.1307 16.1228Z" fill="#00D6B9"/>
<path d="M14.79 23.5216C19.1311 23.5216 22.9134 21.1258 24.8849 17.5856C24.9544 17.4609 25.0214 17.3362 25.0865 17.209C24.9879 17.3983 24.878 17.5806 24.7552 17.7536C24.7119 17.8138 24.669 17.8734 24.6232 17.9335C24.5655 18.0079 24.5078 18.0774 24.4482 18.1469C24.4004 18.2021 24.3521 18.2549 24.3018 18.3076C24.2013 18.4131 24.0958 18.5136 23.9854 18.6073C23.9228 18.66 23.8632 18.7103 23.7981 18.7586C23.7237 18.8162 23.6468 18.8714 23.5704 18.9217C23.5226 18.9552 23.4718 18.9863 23.4215 19.0178C23.3713 19.0489 23.3185 19.0804 23.2633 19.1115C23.1554 19.1716 23.0425 19.2288 22.9302 19.2795C22.8316 19.3229 22.731 19.3633 22.6305 19.4018C22.5201 19.4427 22.4097 19.4787 22.2949 19.5097C22.1248 19.5575 21.9543 19.5935 21.7793 19.6201C21.6546 19.6393 21.525 19.6536 21.3978 19.6635C21.2633 19.6728 21.1268 19.6753 20.9902 19.6753C20.8389 19.6728 20.6881 19.6635 20.5343 19.6467C20.4215 19.6349 20.3091 19.6181 20.1962 19.5989C20.0977 19.5822 19.9996 19.5605 19.901 19.5363C19.8483 19.5245 19.798 19.5097 19.7453 19.4954C19.6013 19.457 19.4574 19.4161 19.3135 19.3756C19.2415 19.354 19.1696 19.3347 19.1001 19.3131C18.9922 19.282 18.8867 19.2485 18.7812 19.2145C18.695 19.1879 18.6087 19.1593 18.522 19.1307C18.4406 19.1041 18.3564 19.078 18.275 19.0494L18.107 18.9917C18.0399 18.9676 17.9704 18.9439 17.9029 18.9197L17.759 18.867C17.6629 18.8335 17.5673 18.7975 17.4736 18.7615C17.4184 18.7398 17.3632 18.7206 17.308 18.6989C17.2336 18.6704 17.1616 18.6413 17.0872 18.6127C17.0103 18.5816 16.9315 18.5501 16.8546 18.519L16.7033 18.4564L16.516 18.3796L16.3721 18.3194L16.2232 18.2549L16.0936 18.1972L15.9763 18.1445L15.8565 18.0893L15.7343 18.0316L15.5786 17.9596L15.4154 17.8828C15.3577 17.8542 15.3001 17.8276 15.2429 17.799L15.0965 17.727C12.5164 16.4391 10.1876 14.7028 8.21611 12.5972C8.15598 12.5347 8.0579 12.5302 7.99284 12.5899C7.96179 12.6184 7.94257 12.6618 7.94257 12.7052L7.94749 20.1233V20.7251C7.94749 21.0751 8.12 21.4013 8.4103 21.5955C10.2975 22.8573 12.5188 23.5266 14.79 23.5216Z" fill="#3370FF"/>
<path d="M27.5469 13.0646C26.0816 12.3475 24.4048 12.1942 22.8341 12.6353C22.767 12.6545 22.702 12.6737 22.6374 12.693C22.5921 12.7072 22.5462 12.7215 22.4984 12.7383C22.4073 12.7693 22.3161 12.8029 22.2274 12.8369C22.0667 12.8995 21.9109 12.969 21.7547 13.0429C21.5916 13.1222 21.4309 13.2085 21.2751 13.2997C21.1145 13.3933 20.9612 13.4939 20.8099 13.6018C20.7019 13.6787 20.5965 13.7575 20.4935 13.8394C20.3806 13.9305 20.2726 14.0217 20.1672 14.1198C20.1095 14.1725 20.0543 14.2253 19.9971 14.2805L19.7044 14.5683L19.4959 14.7743L19.2682 14.9996L19.0498 15.2154L18.8172 15.4456L18.5461 15.7142L18.347 15.9109L18.28 15.9754C18.2489 16.0065 18.2154 16.04 18.1814 16.0716L18.1336 16.1194L18.0592 16.1889C18.0306 16.2155 18.004 16.2391 17.9754 16.2657C17.2533 16.9301 16.4475 17.4984 15.582 17.9612L15.7378 18.0332L15.86 18.0908L15.9798 18.146L16.0971 18.1988L16.2267 18.2564L16.3755 18.321L16.5195 18.3811L16.7068 18.458L16.8581 18.5206C16.935 18.5517 17.0138 18.5832 17.0907 18.6143C17.1627 18.6428 17.2371 18.6719 17.3115 18.7005C17.3667 18.7222 17.4219 18.7414 17.4771 18.7631C17.5732 18.7991 17.6688 18.8326 17.7625 18.8686L17.9064 18.9213C17.9734 18.9455 18.0409 18.9691 18.1104 18.9933L18.2785 19.0509C18.3598 19.0776 18.4416 19.1061 18.5254 19.1323C18.6117 19.1608 18.6979 19.1875 18.7847 19.216C18.8902 19.2496 18.9981 19.2806 19.1036 19.3146C19.1755 19.3363 19.2475 19.358 19.317 19.3772C19.4609 19.4181 19.6048 19.4585 19.7487 19.497C19.8015 19.5113 19.8517 19.5236 19.9045 19.5379C20.003 19.562 20.1011 19.5813 20.1997 19.6005C20.3126 19.6197 20.4249 19.6365 20.5378 19.6483C20.6911 19.6651 20.8424 19.6749 20.9937 19.6769C21.1302 19.6793 21.2673 19.6744 21.4013 19.6651C21.5309 19.6557 21.6581 19.6409 21.7828 19.6217C21.9553 19.5951 22.1283 19.5571 22.2983 19.5113C22.4112 19.4802 22.5236 19.4442 22.634 19.4033C22.7345 19.3674 22.8356 19.3265 22.9336 19.2811C23.0465 19.2308 23.1589 19.1732 23.2668 19.113C23.3195 19.0845 23.3723 19.0529 23.425 19.0194C23.4778 18.9883 23.5256 18.9548 23.5739 18.9233C23.6508 18.8705 23.7272 18.8178 23.8016 18.7601C23.8661 18.7123 23.9287 18.6616 23.9889 18.6088C24.0968 18.5152 24.2023 18.4146 24.3028 18.3092C24.3531 18.2564 24.4014 18.2037 24.4492 18.1485C24.5093 18.079 24.569 18.007 24.6242 17.9351C24.6695 17.8774 24.7129 17.8178 24.7563 17.7552C24.876 17.5827 24.9864 17.4028 25.085 17.2155L25.1979 16.9922L26.2004 14.9942L26.2122 14.97C26.5419 14.2568 26.9929 13.6141 27.5469 13.0646Z" fill="#133C9A"/>
</g>
<defs>
<clipPath id="clip0_664_18054">
<rect x="0.5" width="32" height="32" rx="16" fill="white"/>
</clipPath>
</defs>
</svg>
