<?xml version="1.0" encoding="UTF-8"?>
<svg width="15px" height="15px" viewBox="0 0 15 15" version="1.1" xmlns="http://www.w3.org/2000/svg" xmlns:xlink="http://www.w3.org/1999/xlink">
    <title>编组 3</title>
    <g id="页面-1" stroke="none" stroke-width="1" fill="none" fill-rule="evenodd">
        <g id="采集图文提供是否采集原文链接，供用户自己选择" transform="translate(-858.000000, -407.000000)">
            <g id="编组-5" transform="translate(858.659592, 407.100000)">
                <g id="编组-3" transform="translate(0.500000, 0.500000)">
                    <rect id="矩形" stroke="#24BE48" fill="#FFFFFF" x="0.5" y="0.5" width="12" height="12" rx="2"></rect>
                    <g id="Group-55" transform="translate(1.959645, 2.892721)" fill="#24BE48" fill-rule="nonzero">
                        <g id="check">
                            <path d="M3.56204038,7.09927454 C3.5407393,7.09927454 3.52062161,7.09809115 3.49932053,7.09454097 C3.35257977,7.07442328 3.2247733,6.98803558 3.15140291,6.8602291 L0.0626596138,3.67739598 C-0.0675136447,3.45018447 0.0117737037,3.16143651 0.238985209,3.03126326 C0.466196715,2.90109 0.754944671,2.98037735 0.885117929,3.20758885 L3.66499559,5.85197805 L8.27185865,0.13905013 C8.456468,-0.0455592181 8.7558665,-0.0467426114 8.94165924,0.137866737 C9.12626859,0.322476086 9.12745198,0.62187458 8.94284263,0.807667322 L3.91942514,6.93833306 L3.89694067,6.96081753 C3.80700278,7.05075542 3.68629667,7.09927454 3.56204038,7.09927454 Z" id="Shape"></path>
                        </g>
                    </g>
                </g>
            </g>
        </g>
    </g>
</svg>