<svg width="23" height="14" viewBox="0 0 23 14" fill="none" xmlns="http://www.w3.org/2000/svg">
<path d="M5.12926 4.11944V2.42545L1.29883 2.07788V3.77217L5.12926 4.11944Z" fill="#FF373C"/>
<path d="M1.29883 4.94482V6.63912L5.12926 6.98639V5.29239L1.29883 4.94482Z" fill="#FF373C"/>
<path d="M11.113 9.36514L0.29895 9.9302V8.41253L11.113 7.84717V9.36514Z" fill="#FF373C"/>
<path d="M22.6878 8.75962L11.8738 9.32498V7.80701L22.6878 7.24194V8.75962Z" fill="#FF373C"/>
<path d="M22.088 2.5101L14.2201 2.92152V1.40355L22.088 0.992432V2.5101Z" fill="#FF373C"/>
<path d="M8.11985 1.34229L6.39751 1.43238C6.35246 4.85677 6.30562 6.78585 5.68686 8.16659C5.05944 9.56701 3.72257 10.7261 1.05955 13.0358C0.948867 13.1319 0.834602 13.231 0.717651 13.3327L3.43049 13.191C7.85044 9.29015 8.02378 8.44285 8.11985 1.34229Z" fill="#FF373C"/>
<path d="M9.44051 10.2107L7.36255 10.3193L9.03267 12.8973L11.1106 12.7887L9.44051 10.2107Z" fill="#FF373C"/>
<path d="M21.0299 9.60596L18.9519 9.71455L20.622 12.2928L22.7 12.1842L21.0299 9.60596Z" fill="#FF373C"/>
<path d="M15.6277 9.88892L13.5498 9.99751L11.8796 12.75L13.9576 12.6414L15.6277 9.88892Z" fill="#FF373C"/>
<path d="M18.1495 12.4212L16.3871 12.5134V6.70791L18.1495 6.61572V12.4212Z" fill="#FF373C"/>
<path d="M20.5025 1.07537V2.14046C19.4991 3.00058 17.474 4.45918 11.8738 5.69164V7.31074C18.6766 5.84886 20.9962 3.79059 22.0873 2.75833V0.992432L20.5025 1.07537Z" fill="#FF373C"/>
<path d="M13.8551 2.3753C13.7806 2.32399 13.7093 2.27506 13.6406 2.22852L12.1755 3.1853C12.1755 3.1853 12.8291 3.65907 12.9002 3.7077C14.0977 4.53172 16.2846 6.03567 22.6882 6.74543V5.12573C16.8711 4.44968 14.9271 3.1128 13.8551 2.3753Z" fill="#FF373C"/>
<path d="M12.1757 3.18569L13.6569 4.07833L15.4398 1.33894L13.8106 0.665283L12.1757 3.18569Z" fill="#FF373C"/>
</svg>
