<svg width="19" height="20" viewBox="0 0 19 20" fill="none" xmlns="http://www.w3.org/2000/svg">
<path d="M7.55532 7.88298V7.10528C7.28905 7.06892 7.01809 7.04663 6.74126 7.04663C3.41114 7.04663 0.702698 9.75507 0.702698 13.0852C0.702698 15.1286 1.7232 16.9361 3.28093 18.0294C2.27568 16.9502 1.65868 15.5051 1.65868 13.918C1.65868 10.636 4.29088 7.95922 7.55532 7.88298Z" fill="#00FAF0"/>
<path d="M7.69764 16.6754C9.18382 16.6754 10.3955 15.4942 10.4506 14.0209L10.4553 0.872865H12.8576C12.8072 0.603076 12.7802 0.325076 12.7802 0.0400391H9.49935L9.49466 13.1881C9.43953 14.6602 8.22783 15.8426 6.74165 15.8426C6.27949 15.8426 5.84548 15.7276 5.46191 15.5259C5.96395 16.2203 6.77801 16.6754 7.69764 16.6754Z" fill="#00FAF0"/>
<path d="M17.344 5.33451V4.60373C16.4279 4.60373 15.574 4.3316 14.8585 3.86475C15.4966 4.59669 16.3622 5.12454 17.344 5.33451Z" fill="#00FAF0"/>
<path d="M14.8588 3.86462C14.1609 3.06229 13.7362 2.01598 13.7362 0.872314H12.8577C13.0887 2.12272 13.8312 3.19484 14.8588 3.86462Z" fill="#FF0050"/>
<path d="M6.74153 10.3272C5.22133 10.3272 3.98383 11.5647 3.98383 13.0849C3.98383 14.1441 4.5844 15.0637 5.46297 15.5259C5.1357 15.0731 4.94099 14.5183 4.94099 13.9177C4.94099 12.3975 6.17849 11.16 7.69869 11.16C7.98256 11.16 8.25469 11.2069 8.51275 11.2879V7.9378C8.24648 7.90144 7.97552 7.87915 7.69869 7.87915C7.6506 7.87915 7.60368 7.8815 7.55559 7.88267V10.455C7.29753 10.3741 7.0254 10.3272 6.74153 10.3272Z" fill="#FF0050"/>
<path d="M17.3436 5.33447V7.88456C15.6428 7.88456 14.0662 7.34029 12.7795 6.41715V13.0844C12.7795 16.4146 10.071 19.123 6.74091 19.123C5.45413 19.123 4.2612 18.7171 3.28058 18.0286C4.38319 19.2133 5.955 19.9558 7.69807 19.9558C11.0282 19.9558 13.7366 17.2474 13.7366 13.9173V7.24997C15.0234 8.17312 16.5999 8.71738 18.3008 8.71738V5.43652C17.9723 5.43652 17.6521 5.40133 17.3436 5.33447Z" fill="#FF0050"/>
<path d="M12.7789 13.0843V6.41705C14.0657 7.3402 15.6422 7.88447 17.343 7.88447V5.33438C16.36 5.12441 15.4944 4.59656 14.8574 3.86462C13.8299 3.19484 13.0874 2.12155 12.8563 0.872314H10.454L10.4493 14.0204C10.3942 15.4925 9.18249 16.6749 7.6963 16.6749C6.77668 16.6749 5.96145 16.2198 5.46058 15.5253C4.58318 15.0632 3.98143 14.1436 3.98143 13.0843C3.98143 11.5641 5.21894 10.3266 6.73914 10.3266C7.023 10.3266 7.29514 10.3736 7.55319 10.4545V7.88212C4.28875 7.95836 1.65656 10.6351 1.65656 13.9172C1.65656 15.5042 2.27355 16.9505 3.27881 18.0285C4.25943 18.7171 5.45236 19.1229 6.73914 19.1229C10.0704 19.1229 12.7789 16.4145 12.7789 13.0843Z" fill="black"/>
</svg>
