<svg xmlns="http://www.w3.org/2000/svg" width="406" height="55" fill="none"><path fill="#111111" d="M135.995 8.377C134.701-.488 124.866.842 124.866.842s1.872 3.767 3.792 8.686zM235.452 10.61a5.16 5.16 0 0 0-4.485 2.642l-7.465 12.599h-3.356l11.308-19.914h13.77c.657 0 1.208-.503 1.284-1.166l.174-1.51h-11.893l-.219-1.126a1.73 1.73 0 0 0-1.665-1.293h-8.323l.353 2.419h-12.038c-.657 0-1.208.502-1.284 1.165l-.174 1.51h10.374l-12.799 22.66h12.525L206.357 54h7.078c2.408 0 3.99-1.278 5.241-3.374l23.246-40.02h-6.47zM263.641 1.152c-.87 0-1.604.66-1.713 1.538l-6.163 48.449h-8.645c-.654 0-1.205.496-1.284 1.16l-.204 1.705h19.67l6.47-52.852z"/><path fill="#111111" d="M259.161 3.26h-7.979c-.651 0-1.199.494-1.284 1.15l-5.989 43.095h9.419zM245.175 26.13s-2.958.062-6.059.09a5.16 5.16 0 0 0-4.382 2.536l-14.427 25.372s3.365.01 5.784.022a5.16 5.16 0 0 0 4.392-2.437l2.948-5.108 2.566 7.523h7.404l-4.979-15.607zM160.887 32.568h10.45l4.166-29.996c.11-.787-.426-1.423-1.199-1.423h-24.835c-.77 0-1.482.636-1.591 1.423l-6.567 47.283-.481 3.452 16.892-4.2-.423 3.04h10.45l1.854-13.347h-5.801c-2.568 0-4.945 2.121-5.31 4.739l-.395 2.84-6.044 1.318 2.1-15.13zm-2.708-28.941h6.728l-1.664 11.997h-6.729zm-2.012 14.472h6.729l-1.665 11.997h-6.728zM204.27 1.152h-22.887c-.77 0-1.482.636-1.592 1.423l-7.349 51.472h10.45l7.2-50.42h4.781l-5.852 42.132h5.8c2.569 0 4.945-2.121 5.311-4.739l5.337-38.445c.11-.787-.426-1.423-1.199-1.423M44.411 41.867a27.9 27.9 0 0 1-7.982-4.183c1.25-2.54 2.212-5.46 2.776-8.831H27.54S22.1 52.128.107 52.9L0 53.896S23.472 56.705 34.354 41.2c6.88 13.356 27.06 13.021 27.06 13.021l1.718-10.893c0 .003-11.804.825-18.72-1.46M61.711.532H11.652c-.861 0-1.591.648-1.71 1.516-.107.782-.186 1.318-.186 1.318h41.627l-.882 7.765H11.424c-.858 0-1.583.642-1.707 1.504l-.168 1.485h40.626l-.919 8.307-39.923.15c-.873 0-1.606.663-1.713 1.543l-.082 1.387h52.125c.865 0 1.598-.652 1.71-1.526l2.049-21.775c.134-.74-.67-1.674-1.71-1.674M124.935 38.974l2.618 11.765 9.028-2.01c-2.37-12.078-11.646-9.755-11.646-9.755M329.259.222s1.871 3.767 3.791 8.685l7.337-1.147C339.054-1.174 329.259.222 329.259.222M327.638 41.973c-.261.995-.541 1.94-.821 2.645 0 0-1.598-1.126-3.333-3.672 8.649-11.662 11.786-26.897 11.786-26.897h-8.703c-.812 0-1.518.58-1.686 1.392-1.378 6.667-3.113 12.184-5.027 16.748-.603-2.825-.883-6.18-.569-10.137l1.077-16.174 7.234-.056a1.303 1.303 0 0 0 1.272-1.17l.155-1.391h-8.497l.116-2.106-8.198.016c-.937.003-1.701.762-1.722 1.717l-.073.376h-26.743000000000002c-.871 0-1.604.716-1.714 1.597l-3.697 30.742c-.046.388-.764 5.005-1.509 7.712-2.091 7.179-5.222 9.43-5.222 9.43v.992c.803-.077 1.567-.189 2.297-.325 9.035-1.687 12.659-7.588 14.093-11.536.779-2.149.91-3.718.91-3.718l.237-1.532 2.328-17.095h5.654l-3.655 28.132h-4.245c-.84 0-1.558.617-1.701 1.457l-.182 1.076 9.482-.034c3.451-.015 6.363-2.63 6.81-6.118l3.655-27.266-15.517.009.56-5.126.655-5.78h17.391l-.816 16.258s-.818 11.842 3.914 21.254c-7.249 9.79-14.501 10.614-14.501 10.614 7.054.35 12.858-2.084 17.593-5.898 3.198 3.746 7.824 6.428 14.512 6.633l8.634-17.892-5.484-.072c-3.153-.046-5.937 2.09-6.75 5.194M112.605 40.695l-.962 10.698c-18.742-1.584-17.574-14.93-17.574-14.93H82.56c-.694 16.298 13.107 17.563 27.193 17.563h12.069l1.428-14.928h-8.923c-.894-.003-1.64.691-1.722 1.597M67.24 49.133s2.25.03 4.766.061c2.89.035 5.8-1.767 6.835-4.52l2.775-8.212H71.4z"/><path fill="#111111" d="M98.636 38.382c.587 3.932 3.247 5.132 6.339 5.132h3.095l.645-7.092H98.441s.122 1.473.195 1.96M89.562 17.68l-1.978 15.101h13.499c3.506 0 6.454-2.679 6.856-6.23l1.172-10.397H91.272c-.867 0-1.598.651-1.71 1.526m8.9.97h1.446L98.274 30.3H96.83zM109.582 10.97l.158-1.132H92.193c-.86 0-1.588.645-1.707 1.513l-.158 1.132h17.547a1.74 1.74 0 0 0 1.707-1.514"/><path fill="#111111" d="m134.704 25.64-1.64-.338c-3.238-.667-6.412 1.367-7.243 4.623q-.006.023-.012.047c-.168.657-.277 1.274-.359 1.541 0 0-1.266-.63-2.362-3.653 6.85-6.08 9.196-14.537 9.196-14.537h-8.182c-.527 2.453-1.397 4.75-2.438 6.86-.183-2.568.383-14.076.383-14.076h2.554l.146-1.34c.1-.787-.502-1.485-1.285-1.485h-1.375l.003-.552c.006-.973-.77-1.584-1.725-1.584h-7.806v2.136H79.377c-.66 0-1.214.689-1.287 1.355L75.783 25.19l-2.228 7.768h10.426l1.963-6.79 2.507-20.06h24.105v9.104c-.07 2.356.094 8.322 3.143 13.386-2.751 3.197-5.097 5.042-5.097 5.042a23.2 23.2 0 0 0 7.136-2.313c1.519 1.643 3.476 3.058 5.992 4.037 1.994.776 5.314 1.591 8.071 1.715zM394.54 11.909l1.105-10.757h-9.759c-.849 0-1.571.63-1.705 1.482l-.873 9.275h-20.34l.943-8.652h-10.729999999999999c-.879 0-1.616.673-1.713 1.563l-3.393 31.475q-.06.541-.128 1.06a51 51 0 0 1-1.33 6.521c-2.091 7.179-5.222 9.43-5.222 9.43v.993c9.3-1.002 14.135-6.788 16.616-11.861 2.078-4.252 2.498-8.004 2.498-8.004l.858-7.876h26.439l-3.357 27.737h6.929c2.627 0 4.836-2.003 5.14-4.66l2.864-25.856h-37.714l1.029-9.414h41.861c.651 0 1.202-.493 1.284-1.154l.162-1.305H394.54zM14.772 38.233h5.812l-2.52-9.38H8.342l1.43 5.463c.602 2.31 2.653 3.917 5 3.917M55.324 34.285l2.298-5.432H46.986l-4.254 9.38h6.393c2.636 0 5.043-1.532 6.199-3.948"/></svg>