<?xml version="1.0" standalone="no"?><!DOCTYPE svg PUBLIC "-//W3C//DTD SVG 1.1//EN" "http://www.w3.org/Graphics/SVG/1.1/DTD/svg11.dtd"><svg t="1595498246575" class="icon" viewBox="0 0 1024 1024" version="1.1" xmlns="http://www.w3.org/2000/svg" p-id="2474" xmlns:xlink="http://www.w3.org/1999/xlink" width="200" height="200"><defs><style type="text/css"></style></defs><path d="M327.125 321.45a35.435 35.435 0 1 0 0 70.891 35.435 35.435 0 0 0 0-70.89zM567.701 540.16a27.755 27.755 0 1 0 55.51 0 27.755 27.755 0 1 0-55.51 0zM472.491 356.885a35.435 35.435 0 1 0 70.869 0 35.435 35.435 0 1 0-70.87 0zM706.752 540.16a27.755 27.755 0 1 0 55.51 0 27.755 27.755 0 1 0-55.51 0z" fill="#07B906" p-id="2475"></path><path d="M896 0H128A128 128 0 0 0 0 128v768a128 128 0 0 0 128 128h768a128 128 0 0 0 128-128V128A128 128 0 0 0 896 0zM413.312 654.784c-31.85 0-57.45-6.507-89.365-12.8l-89.174 44.715 25.515-76.758c-63.872-44.65-102.08-102.165-102.08-172.245 0-121.365 114.88-216.939 255.104-216.939 125.44 0 235.307 76.374 257.387 179.158a223.787 223.787 0 0 0-24.555-1.494c-121.195 0-216.875 90.432-216.875 201.899 0 18.539 2.88 36.416 7.872 53.461-7.893 0.64-15.829 1.003-23.829 1.003z m376.32 89.387l19.157 63.744-69.952-38.336c-25.493 6.421-51.114 12.842-76.544 12.842-121.365 0-216.981-82.986-216.981-185.152 0-101.994 95.595-185.13 216.981-185.13 114.624 0 216.662 83.136 216.662 185.13 0 57.515-38.123 108.48-89.323 146.902z" fill="#07B906" p-id="2476"></path></svg>